# xmcd
#
# Track frame offsets:
#	154
#	18271
#	34527
#	53458
#	66968
#	83045
#	95956
#	109897
#	120785
#	131489
#	147481
#	159062
#
# Disc length: 2267 seconds
#
# Revision: 0
# Processed by: cddbd v1.5.2PL0 Copyright (c) Steve Scherf et al.
# Submitted via: EasyCDDAExtractor 4.6.0.1
#
DISCID=9108d90c
DTITLE=Gino e Geno - Coração Cigano
DYEAR=1900
DGENRE=Sertanejo
TTITLE0=Lorota
TTITLE1=Quando Ela Quer
TTITLE2=Coração Cigano (Part. Rick and Renner)
TTITLE3=Vazei Na Braquiara
TTITLE4=Esquina Da Saudade
TTITLE5=Você É Meu Encanto
TTITLE6=Tem Jeito Não
TTITLE7=Coração Batido
TTITLE8=Churrasco De Paixão
TTITLE9=Macaco Velho
TTITLE10=Boi Do Saco Roxo
TTITLE11=Bate Coxa
EXTD=
EXTT0=
EXTT1=
EXTT2=
EXTT3=
EXTT4=
EXTT5=
EXTT6=
EXTT7=
EXTT8=
EXTT9=
EXTT10=
EXTT11=
PLAYORDER=
